<svg width="43" height="43" viewBox="0 0 43 43" fill="none" xmlns="http://www.w3.org/2000/svg">
<path d="M30.75 4.3V5.8H32.25H36.55C37.8628 5.8 39.1219 6.32152 40.0502 7.24982C40.9785 8.17813 41.5 9.43718 41.5 10.75V36.55C41.5 37.8628 40.9785 39.1219 40.0502 40.0502C39.1219 40.9785 37.8628 41.5 36.55 41.5H6.45C5.13718 41.5 3.87813 40.9785 2.94982 40.0502C2.02152 39.1219 1.5 37.8628 1.5 36.55V10.75C1.5 9.43718 2.02152 8.17813 2.94982 7.24982C3.87813 6.32152 5.13718 5.8 6.45 5.8H10.75H12.25V4.3V2.15C12.25 1.97761 12.3185 1.81228 12.4404 1.69038C12.5623 1.56848 12.7276 1.5 12.9 1.5C13.0724 1.5 13.2377 1.56848 13.3596 1.69038C13.4815 1.81228 13.55 1.97761 13.55 2.15V4.3V5.8H15.05H27.95H29.45V4.3V2.15C29.45 1.97761 29.5185 1.81228 29.6404 1.69038C29.7623 1.56848 29.9276 1.5 30.1 1.5C30.2724 1.5 30.4377 1.56848 30.5596 1.69038C30.6815 1.81227 30.75 1.9776 30.75 2.15V4.3ZM4.3 20H2.8V21.5V36.55C2.8 37.518 3.18455 38.4464 3.86906 39.1309C4.55357 39.8155 5.48197 40.2 6.45 40.2H36.55C37.518 40.2 38.4464 39.8155 39.1309 39.1309C39.8155 38.4464 40.2 37.518 40.2 36.55V21.5V20H38.7H4.3ZM38.7 18.7H40.2V17.2V10.75C40.2 9.78197 39.8155 8.85357 39.1309 8.16906C38.4464 7.48455 37.518 7.1 36.55 7.1H32.25H30.75V8.6V10.75C30.75 10.9224 30.6815 11.0877 30.5596 11.2096C30.4377 11.3315 30.2724 11.4 30.1 11.4C29.9276 11.4 29.7623 11.3315 29.6404 11.2096C29.5185 11.0877 29.45 10.9224 29.45 10.75V8.6V7.1H27.95H15.05H13.55V8.6V10.75C13.55 10.9224 13.4815 11.0877 13.3596 11.2096C13.2377 11.3315 13.0724 11.4 12.9 11.4C12.7276 11.4 12.5623 11.3315 12.4404 11.2096C12.3185 11.0877 12.25 10.9224 12.25 10.75V8.6V7.1H10.75H6.45C5.48196 7.1 4.55357 7.48455 3.86906 8.16906C3.18455 8.85357 2.8 9.78196 2.8 10.75V17.2V18.7H4.3H38.7Z" stroke="#FFA944" stroke-width="3"/>
</svg>
