<svg width="22" height="21" viewBox="0 0 22 21" fill="none" xmlns="http://www.w3.org/2000/svg">
<g filter="url(#filter0_i_153_331)">
<path fill-rule="evenodd" clip-rule="evenodd" d="M7.13105 1.29126C8.12474 1.24552 8.44157 1.23535 10.9728 1.23535C13.5041 1.23535 13.8209 1.24636 14.8137 1.29126C15.8066 1.33616 16.4843 1.49458 17.0773 1.72415C17.6983 1.95881 18.2616 2.32562 18.7275 2.80002C19.2019 3.2651 19.5679 3.8276 19.8017 4.4494C20.0321 5.04239 20.1897 5.7201 20.2354 6.71126C20.2812 7.70664 20.2913 8.02347 20.2913 10.5539C20.2913 13.0851 20.2803 13.402 20.2354 14.3956C20.1905 15.3868 20.0321 16.0645 19.8017 16.6575C19.5679 17.2794 19.2013 17.8428 18.7275 18.3086C18.2616 18.783 17.6983 19.1489 17.0773 19.3828C16.4843 19.6132 15.8066 19.7707 14.8154 19.8165C13.8209 19.8622 13.5041 19.8724 10.9728 19.8724C8.44157 19.8724 8.12474 19.8614 7.13105 19.8165C6.1399 19.7716 5.46218 19.6132 4.86919 19.3828C4.24732 19.1489 3.68389 18.7823 3.21811 18.3086C2.74404 17.8432 2.37717 17.2801 2.1431 16.6584C1.91352 16.0654 1.75595 15.3876 1.71021 14.3965C1.66446 13.4011 1.6543 13.0843 1.6543 10.5539C1.6543 8.02263 1.66531 7.7058 1.71021 6.71295C1.75511 5.7201 1.91352 5.04239 2.1431 4.4494C2.37752 3.82766 2.74466 3.26451 3.21896 2.79917C3.68407 2.3252 4.24694 1.95834 4.86834 1.72415C5.46134 1.49458 6.13905 1.33701 7.1302 1.29126H7.13105ZM14.7383 2.9686C13.7557 2.9237 13.4609 2.91438 10.9728 2.91438C8.48477 2.91438 8.18997 2.9237 7.20729 2.9686C6.29831 3.01011 5.80528 3.16174 5.47659 3.28966C5.042 3.45909 4.7311 3.65986 4.40496 3.98601C4.09579 4.28679 3.85786 4.65295 3.70861 5.05764C3.58069 5.38633 3.42905 5.87936 3.38754 6.78834C3.34264 7.77103 3.33333 8.06583 3.33333 10.5539C3.33333 13.0419 3.34264 13.3367 3.38754 14.3194C3.42905 15.2284 3.58069 15.7214 3.70861 16.0501C3.8577 16.4542 4.09575 16.821 4.40496 17.1217C4.70569 17.4309 5.0725 17.669 5.47659 17.8181C5.80528 17.946 6.29831 18.0976 7.20729 18.1392C8.18997 18.1841 8.48393 18.1934 10.9728 18.1934C13.4617 18.1934 13.7557 18.1841 14.7383 18.1392C15.6473 18.0976 16.1404 17.946 16.4691 17.8181C16.9036 17.6487 17.2145 17.4479 17.5407 17.1217C17.8499 16.821 18.0879 16.4542 18.237 16.0501C18.365 15.7214 18.5166 15.2284 18.5581 14.3194C18.603 13.3367 18.6123 13.0419 18.6123 10.5539C18.6123 8.06583 18.603 7.77103 18.5581 6.78834C18.5166 5.87936 18.365 5.38633 18.237 5.05764C18.0676 4.62306 17.8668 4.31216 17.5407 3.98601C17.2399 3.67687 16.8737 3.43894 16.4691 3.28966C16.1404 3.16174 15.6473 3.01011 14.7383 2.9686ZM9.78259 13.4265C10.4473 13.7032 11.1875 13.7406 11.8767 13.5322C12.5658 13.3238 13.1613 12.8826 13.5613 12.2839C13.9614 11.6853 14.1412 10.9663 14.07 10.2498C13.9988 9.53336 13.6811 8.86381 13.1711 8.35555C12.846 8.03065 12.453 7.78188 12.0202 7.62714C11.5874 7.47239 11.1257 7.41553 10.6683 7.46065C10.2109 7.50576 9.76917 7.65173 9.37495 7.88804C8.98074 8.12435 8.64382 8.44513 8.38846 8.82728C8.13309 9.20943 7.96564 9.64345 7.89814 10.0981C7.83065 10.5527 7.8648 11.0167 7.99813 11.4565C8.13146 11.8964 8.36065 12.3012 8.66921 12.6418C8.97778 12.9825 9.35803 13.2505 9.78259 13.4265ZM7.58596 7.16702C8.03073 6.72225 8.55875 6.36944 9.13986 6.12873C9.72098 5.88802 10.3438 5.76413 10.9728 5.76413C11.6018 5.76413 12.2247 5.88802 12.8058 6.12873C13.3869 6.36944 13.9149 6.72225 14.3597 7.16702C14.8044 7.61178 15.1573 8.1398 15.398 8.72092C15.6387 9.30204 15.7626 9.92488 15.7626 10.5539C15.7626 11.1829 15.6387 11.8057 15.398 12.3868C15.1573 12.9679 14.8044 13.496 14.3597 13.9407C13.4614 14.839 12.2431 15.3436 10.9728 15.3436C9.7025 15.3436 8.48421 14.839 7.58596 13.9407C6.68771 13.0425 6.18308 11.8242 6.18308 10.5539C6.18308 9.28356 6.68771 8.06527 7.58596 7.16702ZM16.8249 6.47745C16.9351 6.37348 17.0233 6.24845 17.0843 6.10977C17.1454 5.97108 17.1779 5.82156 17.1802 5.67006C17.1824 5.51856 17.1542 5.36816 17.0972 5.22775C17.0402 5.08735 16.9557 4.95981 16.8485 4.85267C16.7414 4.74553 16.6139 4.66097 16.4735 4.60401C16.333 4.54705 16.1826 4.51884 16.0311 4.52105C15.8796 4.52326 15.7301 4.55584 15.5914 4.61687C15.4528 4.6779 15.3277 4.76614 15.2238 4.87635C15.0216 5.0907 14.9109 5.37542 14.9151 5.67006C14.9194 5.9647 15.0384 6.24607 15.2468 6.45444C15.4551 6.66281 15.7365 6.78176 16.0311 6.78606C16.3258 6.79035 16.6105 6.67965 16.8249 6.47745Z" fill="#3D415D"/>
</g>
<defs>
<filter id="filter0_i_153_331" x="0.807129" y="0.388672" width="20.3315" height="24.3311" filterUnits="userSpaceOnUse" color-interpolation-filters="sRGB">
<feFlood flood-opacity="0" result="BackgroundImageFix"/>
<feBlend mode="normal" in="SourceGraphic" in2="BackgroundImageFix" result="shape"/>
<feColorMatrix in="SourceAlpha" type="matrix" values="0 0 0 0 0 0 0 0 0 0 0 0 0 0 0 0 0 0 127 0" result="hardAlpha"/>
<feOffset dy="4"/>
<feGaussianBlur stdDeviation="7.5"/>
<feComposite in2="hardAlpha" operator="arithmetic" k2="-1" k3="1"/>
<feColorMatrix type="matrix" values="0 0 0 0 0 0 0 0 0 0 0 0 0 0 0 0 0 0 0.2 0"/>
<feBlend mode="normal" in2="shape" result="effect1_innerShadow_153_331"/>
</filter>
</defs>
</svg>
