<svg width="21" height="21" viewBox="0 0 21 21" fill="none" xmlns="http://www.w3.org/2000/svg">
<g filter="url(#filter0_i_153_319)">
<path fill-rule="evenodd" clip-rule="evenodd" d="M1.23584 2.79239C1.23584 2.37944 1.39988 1.9834 1.69189 1.6914C1.98389 1.3994 2.37993 1.23535 2.79288 1.23535H18.3142C18.5188 1.23502 18.7215 1.27505 18.9107 1.35316C19.0998 1.43127 19.2717 1.54592 19.4165 1.69055C19.5613 1.83518 19.6761 2.00695 19.7544 2.19602C19.8328 2.38509 19.873 2.58775 19.8729 2.79239V18.3137C19.8731 18.5184 19.833 18.7211 19.7548 18.9102C19.6766 19.0994 19.5618 19.2713 19.4171 19.4161C19.2724 19.5608 19.1006 19.6757 18.9115 19.754C18.7224 19.8323 18.5197 19.8725 18.315 19.8724H2.79288C2.58834 19.8724 2.3858 19.8321 2.19683 19.7538C2.00787 19.6755 1.83618 19.5607 1.69159 19.4161C1.54699 19.2714 1.43232 19.0996 1.35412 18.9106C1.27592 18.7216 1.23573 18.5191 1.23584 18.3145V2.79239ZM8.61272 8.34115H11.1364V9.60847C11.5006 8.87993 12.4325 8.22425 13.8328 8.22425C16.5174 8.22425 17.1536 9.6754 17.1536 12.338V17.27H14.4368V12.9445C14.4368 11.4281 14.0725 10.5725 13.1475 10.5725C11.864 10.5725 11.3303 11.4951 11.3303 12.9445V17.27H8.61272V8.34115ZM3.95346 17.1539H6.67108V8.22425H3.95346V17.1531V17.1539ZM7.05992 5.31178C7.06504 5.54447 7.02364 5.77584 6.93813 5.9923C6.85263 6.20877 6.72475 6.40598 6.562 6.57235C6.39925 6.73873 6.2049 6.87092 5.99037 6.96117C5.77584 7.05142 5.54544 7.09791 5.3127 7.09791C5.07995 7.09791 4.84956 7.05142 4.63502 6.96117C4.42049 6.87092 4.22615 6.73873 4.06339 6.57235C3.90064 6.40598 3.77276 6.20877 3.68726 5.9923C3.60175 5.77584 3.56035 5.54447 3.56547 5.31178C3.57553 4.85505 3.76403 4.42042 4.0906 4.10096C4.41717 3.7815 4.85585 3.60261 5.3127 3.60261C5.76954 3.60261 6.20822 3.7815 6.53479 4.10096C6.86136 4.42042 7.04986 4.85505 7.05992 5.31178Z" fill="#3D415D"/>
<path fill-rule="evenodd" clip-rule="evenodd" d="M1.23584 2.79239C1.23584 2.37944 1.39988 1.9834 1.69189 1.6914C1.98389 1.3994 2.37993 1.23535 2.79288 1.23535H18.3142C18.5188 1.23502 18.7215 1.27505 18.9107 1.35316C19.0998 1.43127 19.2717 1.54592 19.4165 1.69055C19.5613 1.83518 19.6761 2.00695 19.7544 2.19602C19.8328 2.38509 19.873 2.58775 19.8729 2.79239V18.3137C19.8731 18.5184 19.833 18.7211 19.7548 18.9102C19.6766 19.0994 19.5618 19.2713 19.4171 19.4161C19.2724 19.5608 19.1006 19.6757 18.9115 19.754C18.7224 19.8323 18.5197 19.8725 18.315 19.8724H2.79288C2.58834 19.8724 2.3858 19.8321 2.19683 19.7538C2.00787 19.6755 1.83618 19.5607 1.69159 19.4161C1.54699 19.2714 1.43232 19.0996 1.35412 18.9106C1.27592 18.7216 1.23573 18.5191 1.23584 18.3145V2.79239ZM8.61272 8.34115H11.1363V9.60847C11.5006 8.87993 12.4325 8.22425 13.8328 8.22425C16.5174 8.22425 17.1536 9.6754 17.1536 12.338V17.27H14.4368V12.9445C14.4368 11.4281 14.0725 10.5725 13.1475 10.5725C11.864 10.5725 11.3303 11.4951 11.3303 12.9445V17.27H8.61272V8.34115ZM3.95346 17.1539H6.67108V8.22425H3.95346V17.1531V17.1539ZM7.05992 5.31178C7.06504 5.54447 7.02364 5.77584 6.93813 5.9923C6.85263 6.20877 6.72475 6.40598 6.562 6.57235C6.39925 6.73873 6.2049 6.87092 5.99037 6.96117C5.77584 7.05142 5.54544 7.09791 5.3127 7.09791C5.07995 7.09791 4.84955 7.05142 4.63502 6.96117C4.42049 6.87092 4.22615 6.73873 4.06339 6.57235C3.90064 6.40598 3.77276 6.20877 3.68726 5.9923C3.60175 5.77584 3.56035 5.54447 3.56547 5.31178C3.57553 4.85505 3.76403 4.42042 4.0906 4.10096C4.41717 3.7815 4.85585 3.60261 5.3127 3.60261C5.76954 3.60261 6.20822 3.7815 6.53479 4.10096C6.86136 4.42042 7.04986 4.85505 7.05992 5.31178Z" fill="#3D415D"/>
</g>
<defs>
<filter id="filter0_i_153_319" x="0.388672" y="0.388672" width="20.3315" height="24.3311" filterUnits="userSpaceOnUse" color-interpolation-filters="sRGB">
<feFlood flood-opacity="0" result="BackgroundImageFix"/>
<feBlend mode="normal" in="SourceGraphic" in2="BackgroundImageFix" result="shape"/>
<feColorMatrix in="SourceAlpha" type="matrix" values="0 0 0 0 0 0 0 0 0 0 0 0 0 0 0 0 0 0 127 0" result="hardAlpha"/>
<feOffset dy="4"/>
<feGaussianBlur stdDeviation="7.5"/>
<feComposite in2="hardAlpha" operator="arithmetic" k2="-1" k3="1"/>
<feColorMatrix type="matrix" values="0 0 0 0 0 0 0 0 0 0 0 0 0 0 0 0 0 0 0.2 0"/>
<feBlend mode="normal" in2="shape" result="effect1_innerShadow_153_319"/>
</filter>
</defs>
</svg>
