<svg width="55" height="55" viewBox="0 0 55 55" fill="none" xmlns="http://www.w3.org/2000/svg">
<path d="M27.5001 30.7771C28.439 30.7771 29.3688 30.5921 30.2363 30.2328C31.1038 29.8735 31.892 29.3468 32.5559 28.6829C33.2198 28.019 33.7465 27.2307 34.1058 26.3633C34.4652 25.4958 34.6501 24.566 34.6501 23.6271C34.6501 22.6881 34.4652 21.7584 34.1058 20.8909C33.7465 20.0234 33.2198 19.2352 32.5559 18.5713C31.892 17.9073 31.1038 17.3807 30.2363 17.0213C29.3688 16.662 28.439 16.4771 27.5001 16.4771C25.6038 16.4771 23.7852 17.2304 22.4443 18.5713C21.1034 19.9122 20.3501 21.7308 20.3501 23.6271C20.3501 25.5234 21.1034 27.342 22.4443 28.6829C23.7852 30.0238 25.6038 30.7771 27.5001 30.7771V30.7771Z" stroke="#FFA944" stroke-width="3.5"/>
<path d="M8.29582 19.4563C12.8104 -0.389583 42.2125 -0.366666 46.7042 19.4792C49.3396 31.1208 42.0979 40.975 35.75 47.0708C33.5318 49.2102 30.5703 50.4056 27.4885 50.4056C24.4068 50.4056 21.4452 49.2102 19.2271 47.0708C12.9021 40.975 5.6604 31.0979 8.29582 19.4563V19.4563Z" stroke="#FFA944" stroke-width="3.5"/>
</svg>
