<svg width="21" height="21" viewBox="0 0 21 21" fill="none" xmlns="http://www.w3.org/2000/svg">
<g clip-path="url(#clip0_153_311)" filter="url(#filter0_i_153_311)">
<path d="M20.3093 4.57065C19.602 4.88409 18.8421 5.09587 18.0433 5.1916C18.8675 4.69839 19.4842 3.92213 19.7782 3.00768C19.0038 3.46766 18.1562 3.79144 17.2724 3.96494C16.678 3.33032 15.8907 2.90968 15.0328 2.76834C14.1749 2.62699 13.2943 2.77284 12.5277 3.18325C11.7612 3.59365 11.1516 4.24565 10.7936 5.03802C10.4355 5.83038 10.3491 6.71878 10.5478 7.56528C8.9786 7.48649 7.44354 7.07864 6.0422 6.36819C4.64086 5.65775 3.40456 4.66058 2.41354 3.44141C2.07469 4.02594 1.87985 4.70365 1.87985 5.42541C1.87947 6.07516 2.03948 6.71496 2.34567 7.28804C2.65187 7.86112 3.09478 8.34976 3.63512 8.71061C3.00847 8.69067 2.39565 8.52135 1.84766 8.21673V8.26756C1.84759 9.17886 2.16282 10.0621 2.73985 10.7675C3.31688 11.4728 4.12017 11.9568 5.01341 12.1373C4.43209 12.2946 3.82262 12.3178 3.23103 12.2051C3.48305 12.9892 3.97397 13.6749 4.63505 14.1661C5.29614 14.6574 6.09429 14.9296 6.91778 14.9447C5.51986 16.0421 3.79344 16.6374 2.01624 16.6347C1.70142 16.6348 1.38688 16.6164 1.07422 16.5797C2.87818 17.7396 4.97812 18.3551 7.12279 18.3527C14.3828 18.3527 18.3516 12.3398 18.3516 7.12477C18.3516 6.95534 18.3474 6.78422 18.3398 6.61479C19.1117 6.0565 19.7781 5.36517 20.3077 4.57319L20.3093 4.57065Z" fill="#3D415D"/>
<path d="M20.3093 4.57065C19.602 4.88409 18.8421 5.09587 18.0433 5.1916C18.8675 4.69839 19.4842 3.92213 19.7782 3.00768C19.0038 3.46766 18.1562 3.79144 17.2724 3.96494C16.678 3.33032 15.8907 2.90968 15.0328 2.76834C14.1749 2.62699 13.2943 2.77284 12.5277 3.18325C11.7612 3.59365 11.1516 4.24565 10.7936 5.03802C10.4356 5.83038 10.3491 6.71878 10.5478 7.56528C8.9786 7.48649 7.44354 7.07864 6.0422 6.36819C4.64086 5.65775 3.40456 4.66058 2.41354 3.44141C2.07469 4.02594 1.87985 4.70365 1.87985 5.42541C1.87947 6.07516 2.03948 6.71496 2.34567 7.28804C2.65187 7.86112 3.09478 8.34976 3.63512 8.71061C3.00847 8.69067 2.39565 8.52135 1.84766 8.21673V8.26756C1.84759 9.17886 2.16282 10.0621 2.73985 10.7675C3.31688 11.4728 4.12017 11.9568 5.01341 12.1373C4.43209 12.2946 3.82262 12.3178 3.23103 12.2051C3.48305 12.9892 3.97397 13.6749 4.63505 14.1661C5.29614 14.6574 6.09429 14.9296 6.91778 14.9447C5.51986 16.0421 3.79344 16.6374 2.01624 16.6347C1.70142 16.6348 1.38688 16.6164 1.07422 16.5797C2.87818 17.7396 4.97812 18.3551 7.12279 18.3527C14.3828 18.3527 18.3516 12.3398 18.3516 7.12477C18.3516 6.95534 18.3474 6.78422 18.3398 6.61479C19.1117 6.0565 19.7781 5.36517 20.3077 4.57319L20.3093 4.57065Z" fill="#3D415D"/>
</g>
<defs>
<filter id="filter0_i_153_311" x="0.280273" y="0.388672" width="20.3315" height="24.3311" filterUnits="userSpaceOnUse" color-interpolation-filters="sRGB">
<feFlood flood-opacity="0" result="BackgroundImageFix"/>
<feBlend mode="normal" in="SourceGraphic" in2="BackgroundImageFix" result="shape"/>
<feColorMatrix in="SourceAlpha" type="matrix" values="0 0 0 0 0 0 0 0 0 0 0 0 0 0 0 0 0 0 127 0" result="hardAlpha"/>
<feOffset dy="4"/>
<feGaussianBlur stdDeviation="7.5"/>
<feComposite in2="hardAlpha" operator="arithmetic" k2="-1" k3="1"/>
<feColorMatrix type="matrix" values="0 0 0 0 0 0 0 0 0 0 0 0 0 0 0 0 0 0 0.2 0"/>
<feBlend mode="normal" in2="shape" result="effect1_innerShadow_153_311"/>
</filter>
<clipPath id="clip0_153_311">
<rect width="20.3313" height="20.3313" fill="white" transform="translate(0.280273 0.388672)"/>
</clipPath>
</defs>
</svg>
