<svg width="21" height="21" viewBox="0 0 21 21" fill="none" xmlns="http://www.w3.org/2000/svg">
<g clip-path="url(#clip0_153_324)" filter="url(#filter0_i_153_324)">
<path d="M20.2423 5.90141C20.1271 5.49075 19.9029 5.11895 19.5934 4.82555C19.2751 4.52312 18.885 4.30679 18.4599 4.19697C16.869 3.77764 10.4951 3.77764 10.4951 3.77764C7.83789 3.74741 5.18135 3.88037 2.54046 4.17579C2.11535 4.29373 1.72599 4.51489 1.40698 4.81962C1.09354 5.1212 0.86651 5.49309 0.747911 5.90057C0.463012 7.43537 0.324589 8.99376 0.334507 10.5547C0.324342 12.1143 0.462425 13.6722 0.747911 15.2089C0.863969 15.6147 1.09015 15.9849 1.40444 16.2839C1.71873 16.583 2.11011 16.799 2.54046 16.9134C4.15256 17.3319 10.4951 17.3319 10.4951 17.3319C13.1557 17.3621 15.8156 17.2292 18.4599 16.9337C18.885 16.8239 19.2751 16.6076 19.5934 16.3051C19.9068 16.0061 20.1296 15.6342 20.2414 15.2293C20.5338 13.6951 20.6759 12.136 20.6658 10.5742C20.6878 9.00584 20.5459 7.43945 20.2423 5.90057V5.90141ZM8.46873 13.4553V7.65499L13.7718 10.5556L8.46873 13.4553Z" fill="#3D415D"/>
<path d="M20.2423 5.90141C20.1271 5.49075 19.9029 5.11895 19.5934 4.82555C19.2751 4.52312 18.885 4.30679 18.4599 4.19697C16.869 3.77764 10.4951 3.77764 10.4951 3.77764C7.83789 3.74741 5.18135 3.88037 2.54046 4.17579C2.11535 4.29373 1.72599 4.51489 1.40698 4.81962C1.09354 5.1212 0.86651 5.49309 0.747911 5.90057C0.463012 7.43537 0.324589 8.99376 0.334507 10.5547C0.324342 12.1143 0.462425 13.6722 0.747911 15.2089C0.863969 15.6147 1.09015 15.9849 1.40444 16.2839C1.71873 16.583 2.11011 16.799 2.54046 16.9134C4.15256 17.3319 10.4951 17.3319 10.4951 17.3319C13.1557 17.3621 15.8156 17.2292 18.4599 16.9337C18.885 16.8239 19.2751 16.6076 19.5934 16.3051C19.9068 16.0061 20.1296 15.6342 20.2414 15.2293C20.5338 13.6951 20.6759 12.136 20.6658 10.5742C20.6878 9.00584 20.5459 7.43945 20.2423 5.90057V5.90141ZM8.46873 13.4553V7.65499L13.7718 10.5556L8.46873 13.4553Z" fill="#3D415D"/>
</g>
<defs>
<filter id="filter0_i_153_324" x="0.334473" y="0.388672" width="20.3315" height="24.3311" filterUnits="userSpaceOnUse" color-interpolation-filters="sRGB">
<feFlood flood-opacity="0" result="BackgroundImageFix"/>
<feBlend mode="normal" in="SourceGraphic" in2="BackgroundImageFix" result="shape"/>
<feColorMatrix in="SourceAlpha" type="matrix" values="0 0 0 0 0 0 0 0 0 0 0 0 0 0 0 0 0 0 127 0" result="hardAlpha"/>
<feOffset dy="4"/>
<feGaussianBlur stdDeviation="7.5"/>
<feComposite in2="hardAlpha" operator="arithmetic" k2="-1" k3="1"/>
<feColorMatrix type="matrix" values="0 0 0 0 0 0 0 0 0 0 0 0 0 0 0 0 0 0 0.2 0"/>
<feBlend mode="normal" in2="shape" result="effect1_innerShadow_153_324"/>
</filter>
<clipPath id="clip0_153_324">
<rect width="20.3313" height="20.3313" fill="white" transform="translate(0.334473 0.388672)"/>
</clipPath>
</defs>
</svg>
